<svg width="41" height="41" viewBox="0 0 41 41" fill="none" xmlns="http://www.w3.org/2000/svg">
<path d="M40 20.007C40 8.96268 31.0517 0 19.9928 0C8.94832 0 0 8.96268 0 20.007C0 29.9961 7.31478 38.2649 16.8703 39.7683V25.7894H11.7962V20.007H16.8703V15.598C16.8703 10.5817 19.8627 7.82066 24.4308 7.82066C26.6137 7.82066 28.9122 8.21097 28.9122 8.21097V13.126H26.3968C23.9104 13.126 23.1442 14.6728 23.1442 16.2485V20.007H28.6953L27.8135 25.7894H23.1587V39.7683C32.7141 38.2649 40.0289 29.9961 40.0289 20.007H40Z" fill="white"/>
<path d="M27.7841 25.7885L28.6659 20.0062H23.1148V16.2476C23.1148 14.6719 23.8954 13.1252 26.3674 13.1252H28.8827V8.21013C28.8827 8.21013 26.5987 7.81982 24.4013 7.81982C19.8332 7.81982 16.8408 10.5954 16.8408 15.5971V20.0062H11.7667V25.7885H16.8408V39.7674C17.8527 39.9265 18.908 40.0132 19.9633 40.0132C21.0331 40.0132 22.0739 39.9265 23.0858 39.7674V25.7885H27.7407H27.7841Z" fill="#680000"/>
</svg>
