<svg width="41" height="41" viewBox="0 0 41 41" fill="none" xmlns="http://www.w3.org/2000/svg">
<path d="M40.9987 20.0075C40.9987 31.0508 32.0496 40.0151 20.9913 40.0151C9.94806 40.0151 0.983887 31.0659 0.983887 20.0075C0.983887 8.96422 9.93299 0 20.9913 0C32.0346 0 40.9987 8.94915 40.9987 20.0075Z" fill="white"/>
<path d="M27.2155 12.4277C26.4622 12.4277 25.8445 13.0454 25.8445 13.7987C25.8445 14.552 26.4622 15.1697 27.2155 15.1697C27.9688 15.1697 28.5865 14.552 28.5865 13.7987C28.5865 13.0454 27.9688 12.4277 27.2155 12.4277Z" fill="#680000"/>
<path d="M21.0947 23.6688C19.0608 23.6688 17.3885 22.0116 17.3885 19.9626C17.3885 17.9287 19.0457 16.2564 21.0947 16.2564C23.1286 16.2564 24.8009 17.9137 24.8009 19.9626C24.8009 21.9965 23.1436 23.6688 21.0947 23.6688ZM21.0947 14.1924C17.9158 14.1924 15.3245 16.7837 15.3245 19.9626C15.3245 23.1415 17.9158 25.7329 21.0947 25.7329C24.2736 25.7329 26.8649 23.1415 26.8649 19.9626C26.8649 16.7837 24.2736 14.1924 21.0947 14.1924V14.1924Z" fill="#680000"/>
<path d="M16.3209 10.4574C13.6542 10.4574 11.4848 12.6269 11.4848 15.2935V24.6495C11.4848 27.3161 13.6542 29.4856 16.3209 29.4856H25.6918C28.3585 29.4856 30.528 27.3161 30.528 24.6495V15.2935C30.528 12.6269 28.3585 10.4574 25.6918 10.4574H16.3209V10.4574ZM25.6918 31.7003H16.3209C12.4339 31.7003 9.28516 28.5365 9.28516 24.6495V15.2935C9.28516 11.4065 12.449 8.24268 16.3209 8.24268H25.6918C29.5788 8.24268 32.7427 11.4065 32.7427 15.2935V24.6495C32.7427 28.5365 29.5788 31.7003 25.6918 31.7003Z" fill="#680000"/>
</svg>
