<svg width="121" height="121" viewBox="0 0 121 121" fill="none" xmlns="http://www.w3.org/2000/svg">
<path fill-rule="evenodd" clip-rule="evenodd" d="M60.5 121C27.0868 121 0 93.9132 0 60.5C0 27.0868 27.0868 0 60.5 0C93.9132 0 121 27.0868 121 60.5C121 93.9132 93.9132 121 60.5 121ZM34.5175 43.3125C32.8217 37.072 33.7972 31.7621 40.8519 28.5695C40.8519 37.9183 40.8519 47.2669 40.8519 56.6157C40.8519 59.6176 43.3002 62.0659 46.3021 62.0659H48.78C50.3607 70.4655 57.7342 76.8206 66.5931 76.8206C71.6127 76.8206 76.1553 74.7799 79.4377 71.4834L84.0134 76.7026V63.7213V53.6646V53.662H84.0127C81.8319 46.0979 74.8589 40.5652 66.5931 40.5652C58.4084 40.5652 51.4919 45.9899 49.2396 53.4395C48.4072 52.4821 47.9023 51.2331 47.9023 49.87C47.9023 41.5572 47.9023 33.2445 47.9023 24.9317C46.7238 22.4591 44.8146 21.0302 42.0753 20.7872C41.2654 23.0342 40.5798 24.0206 39.6832 24.8204C32.0485 31.6299 30.2249 37.3932 34.5173 43.3124L34.5175 43.3125ZM77.7729 36.5864C81.8375 38.1257 85.1033 41.2374 87.0401 45.1068C87.8204 46.6657 88.3728 48.3263 88.6756 50.0264H91.9897C91.6689 47.8738 91.0029 45.7177 89.9643 43.643C86.5338 36.7897 79.9658 32.6461 73.2422 32.3405V35.6173C74.7748 35.7018 76.3031 36.0298 77.7728 36.5864H77.7729ZM85.0906 46.0825C83.3992 42.7033 80.5524 39.9702 77.0008 38.6251C75.7831 38.1639 74.5152 37.8855 73.2423 37.8035V40.186C74.2447 40.2672 75.2416 40.4956 76.2009 40.8589C79.2394 42.0096 81.6675 44.3648 83.1133 47.2534C83.5556 48.137 83.9028 49.069 84.1455 50.0263H86.4527C86.1753 48.6612 85.7156 47.3309 85.0906 46.0824V46.0825ZM56.7556 62.0659H63.6136C64.4044 62.7613 65.4415 63.1832 66.5773 63.1832C69.0571 63.1832 71.0675 61.1729 71.0675 58.6931C71.0675 56.2132 69.0571 54.2029 66.5773 54.2029C65.4414 54.2029 64.4044 54.6248 63.6136 55.3203H56.7557C58.1505 51.3151 61.9591 48.4407 66.4396 48.4407C71.1145 48.4407 75.0583 51.5699 76.2915 55.8478H76.2919V55.8492V61.5371V68.8789L73.704 65.9271C71.8477 67.7915 69.2785 68.9457 66.4395 68.9457C61.959 68.9457 58.1504 66.0713 56.7556 62.0661V62.0659ZM60.5 105.624C35.5786 105.624 15.3756 85.4214 15.3756 60.4999C15.3756 35.5785 35.5785 15.3755 60.5 15.3755C85.4214 15.3755 105.624 35.5783 105.624 60.4999C105.624 85.4213 85.4216 105.624 60.5 105.624V105.624Z" fill="white"/>
<path d="M28.3247 82.9141L29.9911 81.2415V82.8122V87.3269H28.3247V82.9141ZM29.9911 85.7994H32.1666V87.3269H29.9911V85.7994ZM32.5462 85.3488L36.638 81.2445H38.0822V87.3268H36.4159V86.5398H33.7897L35.2802 85.0586H36.4159V83.4477L32.5462 87.3266V85.3486V85.3488ZM38.4803 82.9141L40.1467 81.2415V87.3269H38.4803V82.9141ZM41.7575 81.2415C42.3746 81.2415 42.8654 81.402 43.2295 81.7199C43.5937 82.0378 43.7757 82.5146 43.7757 83.1502C43.7757 83.6933 43.5951 84.1469 43.2341 84.508C42.8731 84.869 42.3963 85.0496 41.8038 85.0496H40.5725V83.5683L41.7745 83.559C41.8917 83.559 41.9874 83.522 42.063 83.4464C42.1371 83.3708 42.1741 83.2766 42.1741 83.164C42.1741 83.0637 42.1402 82.9789 42.0723 82.9109C42.0043 82.8414 41.901 82.806 41.7652 82.806H40.1467V81.2414H41.7575V81.2415ZM41.7575 83.559C42.3746 83.559 42.8654 83.7133 43.2295 84.0235C43.5937 84.3321 43.7757 84.7995 43.7757 85.4244C43.7757 85.9691 43.5951 86.4227 43.2341 86.7837C42.8731 87.1463 42.3963 87.3269 41.8038 87.3269H40.5725V85.7994H41.7668C41.884 85.7994 41.9813 85.7608 42.0585 85.6822C42.1356 85.6034 42.1742 85.5094 42.1742 85.3968C42.1742 85.3026 42.1433 85.2209 42.0817 85.1529C42.02 85.0835 41.9182 85.0496 41.7762 85.0496H40.5726V83.5683L41.7577 83.559H41.7575ZM50.4226 84.2626C50.4226 85.2439 50.114 86.0092 49.4969 86.5584C48.8797 87.1077 48.1453 87.3823 47.2936 87.3823C46.4481 87.3823 45.7168 87.1092 45.0996 86.563C44.4824 86.0168 44.1739 85.2499 44.1739 84.2624C44.1739 83.2873 44.4825 82.5236 45.0996 81.9711C45.7168 81.4187 46.4512 81.1426 47.3029 81.1426C48.1545 81.1426 48.8103 81.3478 49.2702 81.7582C49.73 82.1687 50.0371 82.5622 50.1913 82.9386C50.3456 83.3151 50.4227 83.7563 50.4227 84.2624L50.4226 84.2626ZM45.7476 84.2626C45.7476 84.7378 45.8988 85.1112 46.2012 85.3827C46.5036 85.6543 46.8647 85.79 47.2844 85.79C47.6917 85.79 48.0466 85.6573 48.349 85.3919C48.6515 85.1266 48.8026 84.7501 48.8026 84.2624C48.8026 83.7811 48.6514 83.4061 48.349 83.1377C48.0466 82.8692 47.6855 82.7349 47.2658 82.7349C46.8585 82.7349 46.5036 82.8661 46.2012 83.1284C45.8987 83.3907 45.7476 83.7687 45.7476 84.2624V84.2626ZM50.5986 82.9125L52.265 81.2415V87.3177H50.5986V82.9126V82.9125ZM53.8759 81.2415C54.493 81.2415 54.9837 81.402 55.3479 81.7199C55.712 82.0378 55.894 82.5146 55.894 83.1502C55.894 83.6933 55.7134 84.1469 55.3524 84.508C54.9914 84.869 54.5146 85.0496 53.9221 85.0496C53.663 85.0496 53.5334 85.0249 53.5334 84.9755L53.5704 84.9385L53.6722 84.8922L52.6817 84.1424L53.4315 84.1331C53.6783 84.1331 53.8666 84.0683 53.9962 83.9371C54.1258 83.806 54.1906 83.6409 54.1906 83.4418C54.1906 83.2427 54.1335 83.0869 54.0193 82.9743C53.9051 82.8632 53.7091 82.8061 53.4314 82.8061H52.265V81.2415H53.8759V81.2415ZM55.8477 87.3624L52.626 84.133H54.5979L55.8477 85.4136V87.3622V87.3624ZM56.1162 85.3489L60.208 81.2447H61.6523V87.3269H59.9859V86.5399H57.3598L58.8503 85.0587H59.9859V83.4478L56.1162 87.3268V85.3488V85.3489ZM63.726 82.8092L65.3924 81.2417V82.8124V87.327H63.726V82.8094V82.8092ZM62.2185 82.8154L63.7846 81.2415H67.5031L65.9355 82.8154H62.2186H62.2185ZM72.7244 84.2626C72.7244 85.2439 72.4158 86.0092 71.7987 86.5584C71.1815 87.1077 70.4471 87.3823 69.5954 87.3823C68.7499 87.3823 68.0186 87.1092 67.4014 86.563C66.7842 86.0168 66.4757 85.2499 66.4757 84.2624C66.4757 83.2873 66.7843 82.5236 67.4014 81.9711C68.0186 81.4187 68.753 81.1426 69.6047 81.1426C70.4563 81.1426 71.1121 81.3478 71.572 81.7582C72.0318 82.1687 72.3389 82.5622 72.4931 82.9386C72.6474 83.3151 72.7246 83.7563 72.7246 84.2624L72.7244 84.2626ZM68.0494 84.2626C68.0494 84.7378 68.2006 85.1112 68.503 85.3827C68.8055 85.6543 69.1665 85.79 69.5862 85.79C69.9935 85.79 70.3484 85.6573 70.6509 85.3919C70.9533 85.1266 71.1044 84.7501 71.1044 84.2624C71.1044 83.7811 70.9532 83.4061 70.6509 83.1377C70.3484 82.8692 69.9873 82.7349 69.5677 82.7349C69.1603 82.7349 68.8055 82.8661 68.503 83.1284C68.2005 83.3907 68.0494 83.7687 68.0494 84.2624V84.2626ZM72.9004 82.9125L74.5668 81.2415V87.3177H72.9004V82.9126V82.9125ZM76.1777 81.2415C76.7948 81.2415 77.2855 81.402 77.6497 81.7199C78.0138 82.0378 78.1958 82.5146 78.1958 83.1502C78.1958 83.6933 78.0153 84.1469 77.6542 84.508C77.2932 84.869 76.8164 85.0496 76.224 85.0496C75.9648 85.0496 75.8352 85.0249 75.8352 84.9755L75.8722 84.9385L75.974 84.8922L74.9835 84.1424L75.7333 84.1331C75.9802 84.1331 76.1684 84.0683 76.298 83.9371C76.4276 83.806 76.4924 83.6409 76.4924 83.4418C76.4924 83.2427 76.4353 83.0869 76.3211 82.9743C76.2069 82.8632 76.0109 82.8061 75.7332 82.8061H74.5668V81.2415H76.1777V81.2415ZM78.1496 87.3624L74.9279 84.133H76.8997L78.1496 85.4136V87.3622V87.3624ZM78.4828 82.9141L80.1492 81.2415V87.3269H78.4828V82.9141ZM85.4446 85.0402C85.4446 85.6944 85.2008 86.253 84.7133 86.7158C84.2258 87.1787 83.6487 87.4101 82.9821 87.4101C82.3217 87.4101 81.7524 87.1802 81.2741 86.7188C80.7958 86.259 80.5566 85.6974 80.5566 85.037V82.9139L82.223 81.2444V85.057C82.223 85.2606 82.3016 85.4365 82.4591 85.5816C82.6165 85.7266 82.8032 85.7992 83.0193 85.7992C83.2229 85.7992 83.4035 85.7283 83.5609 85.5863C83.7182 85.4443 83.797 85.2685 83.797 85.0587V83.6052V82.2721V81.2444H85.4449V82.0683V85.0399L85.4446 85.0402ZM85.9074 85.4028L90.1011 81.2415V83.846L92.7395 81.2415V87.3177H91.1564V84.6793L88.4903 87.3439V84.7626L85.9074 87.3177V85.4029V85.4028Z" fill="white"/>
<path d="M47.6738 94.2464L51.7657 90.1421H53.2099V96.2244H51.5435V95.4375H48.9174L50.4079 93.9563H51.5435V92.3454L47.6738 96.2244V94.2464ZM58.57 93.9378C58.57 94.592 58.3262 95.1504 57.8387 95.6134C57.351 96.0763 56.774 96.3077 56.1075 96.3077C55.4471 96.3077 54.8777 96.0778 54.3995 95.6164C53.9211 95.1567 53.682 94.595 53.682 93.9346V91.8115L55.3484 90.1421V93.9547C55.3484 94.1584 55.427 94.3343 55.5845 94.4794C55.7419 94.6243 55.9286 94.697 56.1446 94.697C56.3483 94.697 56.5289 94.626 56.6862 94.4841C56.8436 94.3421 56.9224 94.1662 56.9224 93.9564V92.5029V91.1698V90.1421H58.5702V90.966V93.9376L58.57 93.9378ZM60.9954 94.7153V96.2244H61.773C62.5876 96.2244 63.2712 95.9343 63.8235 95.3542C64.3759 94.7756 64.6521 94.0736 64.6521 93.2481C64.6521 92.3994 64.3297 91.6697 63.6847 91.0586C63.0397 90.4476 62.2698 90.1421 61.3748 90.1421H60.6898L60.6806 91.7252L61.4952 91.7067C61.921 91.7067 62.2867 91.8579 62.5922 92.1619C62.8977 92.4643 63.0505 92.8254 63.0505 93.2435C63.0505 93.637 62.9193 93.981 62.657 94.2741C62.3947 94.5688 62.0691 94.7155 61.6803 94.7155H60.9953L60.9954 94.7153ZM59.0143 91.8115L60.6807 90.1421V96.2151H59.0143V91.8115ZM65.0688 91.8115L66.7352 90.139V96.2244H65.0688V91.8115ZM73.3914 93.16C73.3914 94.1414 73.0827 94.9066 72.4657 95.4559C71.8484 96.0052 71.114 96.2798 70.2624 96.2798C69.4168 96.2798 68.6855 96.0066 68.0683 95.4605C67.4511 94.9143 67.1426 94.1474 67.1426 93.1599C67.1426 92.1848 67.4512 91.421 68.0683 90.8686C68.6855 90.3162 69.42 90.04 70.2716 90.04C71.1233 90.04 71.7791 90.2453 72.2389 90.6557C72.6988 91.0661 73.0058 91.4595 73.1601 91.836C73.3143 92.2126 73.3915 92.6538 73.3915 93.1599L73.3914 93.16ZM68.7163 93.16C68.7163 93.6353 68.8675 94.0087 69.1699 94.2803C69.4724 94.5519 69.8334 94.6876 70.2531 94.6876C70.6604 94.6876 71.0153 94.5549 71.3177 94.2895C71.6201 94.0242 71.7712 93.6477 71.7712 93.16C71.7712 92.6787 71.62 92.3037 71.3177 92.0353C71.0152 91.7668 70.6541 91.6325 70.2345 91.6325C69.8271 91.6325 69.4723 91.7637 69.1699 92.026C68.8674 92.2883 68.7163 92.6663 68.7163 93.16V93.16Z" fill="white"/>
</svg>
