<svg width="158" height="158" viewBox="0 0 158 158" fill="none" xmlns="http://www.w3.org/2000/svg">
<circle cx="79" cy="79" r="79" fill="#680000"/>
<path fill-rule="evenodd" clip-rule="evenodd" d="M45.8304 59.4824C43.6861 51.5915 44.9196 44.8773 53.84 40.8404C53.84 52.6616 53.84 64.4826 53.84 76.3038C53.84 80.0995 56.9358 83.1953 60.7315 83.1953H63.8647C65.8635 93.8163 75.187 101.852 86.3887 101.852C92.7358 101.852 98.4797 99.2717 102.63 95.1034L108.416 101.703V85.2885V72.5722V72.5689C105.659 63.0045 96.8405 56.0086 86.3887 56.0086C76.0395 56.0086 67.2938 62.8678 64.4459 72.2876C63.3934 71.077 62.7549 69.4977 62.7549 67.774C62.7549 57.2628 62.7549 46.7518 62.7549 36.2406C61.2647 33.114 58.8506 31.3073 55.3869 31C54.3628 33.8412 53.496 35.0886 52.3622 36.0998C42.7085 44.7102 40.4029 51.9978 45.8304 59.4824ZM100.525 50.9775C105.665 52.9239 109.794 56.8584 112.243 61.7512C113.23 63.7224 113.928 65.8221 114.311 67.9719H118.502C118.096 65.25 117.254 62.5237 115.941 59.9003C111.603 51.2345 103.298 45.9951 94.7963 45.6087V49.7521C96.7342 49.8589 98.6669 50.2737 100.525 50.9775ZM109.778 62.985C107.639 58.7121 104.04 55.2562 99.5489 53.5553C98.0091 52.9722 96.406 52.6202 94.7964 52.5165V55.529C96.0639 55.6317 97.3244 55.9205 98.5374 56.3798C102.38 57.8349 105.45 60.813 107.278 64.4655C107.837 65.5827 108.276 66.7613 108.583 67.9717H111.5C111.15 66.2456 110.568 64.5637 109.778 62.985ZM73.9496 83.1953H82.6213C83.6212 84.0747 84.9326 84.6082 86.3687 84.6082C89.5044 84.6082 92.0464 82.0662 92.0464 78.9305C92.0464 75.7949 89.5044 73.2529 86.3687 73.2529C84.9325 73.2529 83.6212 73.7864 82.6213 74.6657H73.9498C75.7134 69.6014 80.5292 65.9668 86.1946 65.9668C92.1059 65.9668 97.0926 69.9235 98.652 75.3328L98.6525 75.3346V82.5266V91.8101L95.3802 88.0777C93.0329 90.4352 89.7843 91.8945 86.1945 91.8945C80.529 91.8945 75.7133 88.2597 73.9496 83.1953Z" fill="white"/>
<path d="M38 109.557L40.1071 107.442V109.428V115.137H38V109.557ZM40.1071 113.205H42.858V115.137H40.1071V113.205ZM43.3379 112.635L48.5119 107.446H50.338V115.137H48.2309V114.141H44.9103L46.795 112.268H48.2309V110.232L43.3379 115.136V112.635V112.635ZM50.8413 109.557L52.9484 107.442V115.137H50.8413V109.557ZM54.9853 107.442C55.7656 107.442 56.3861 107.645 56.8466 108.047C57.307 108.449 57.5372 109.052 57.5372 109.855C57.5372 110.542 57.3088 111.116 56.8523 111.572C56.3958 112.029 55.7929 112.257 55.0438 112.257H53.4869V110.384L55.0067 110.372C55.1549 110.372 55.2759 110.326 55.3716 110.23C55.4652 110.134 55.512 110.015 55.512 109.873C55.512 109.746 55.4692 109.639 55.3833 109.553C55.2974 109.465 55.1666 109.42 54.995 109.42H52.9484V107.442H54.9853V107.442ZM54.9853 110.372C55.7656 110.372 56.3861 110.567 56.8466 110.96C57.307 111.35 57.5372 111.941 57.5372 112.731C57.5372 113.42 57.3088 113.993 56.8523 114.45C56.3958 114.908 55.7929 115.137 55.0438 115.137H53.4869V113.205H54.997C55.1452 113.205 55.2682 113.156 55.3658 113.057C55.4634 112.957 55.5122 112.839 55.5122 112.696C55.5122 112.577 55.4731 112.474 55.3951 112.388C55.3172 112.3 55.1884 112.257 55.0089 112.257H53.487V110.384L54.9855 110.372H54.9853ZM65.9419 111.262C65.9419 112.503 65.5517 113.47 64.7714 114.165C63.991 114.86 63.0623 115.207 61.9854 115.207C60.9163 115.207 59.9916 114.861 59.2112 114.171C58.4307 113.48 58.0407 112.511 58.0407 111.262C58.0407 110.029 58.4309 109.063 59.2112 108.365C59.9916 107.666 60.9203 107.317 61.9972 107.317C63.074 107.317 63.9033 107.576 64.4847 108.095C65.0662 108.614 65.4545 109.112 65.6495 109.588C65.8445 110.064 65.9421 110.622 65.9421 111.262L65.9419 111.262ZM60.0305 111.262C60.0305 111.863 60.2218 112.335 60.6041 112.678C60.9866 113.022 61.4431 113.193 61.9737 113.193C62.4888 113.193 62.9375 113.026 63.32 112.69C63.7025 112.355 63.8935 111.878 63.8935 111.262C63.8935 110.653 63.7023 110.179 63.32 109.84C62.9375 109.5 62.481 109.33 61.9503 109.33C61.4353 109.33 60.9866 109.496 60.6041 109.828C60.2216 110.16 60.0305 110.638 60.0305 111.262V111.262ZM66.1645 109.555L68.2716 107.442V115.125H66.1645V109.555V109.555ZM70.3085 107.442C71.0887 107.442 71.7093 107.645 72.1697 108.047C72.6302 108.449 72.8603 109.052 72.8603 109.855C72.8603 110.542 72.632 111.116 72.1755 111.572C71.719 112.029 71.1161 112.257 70.367 112.257C70.0392 112.257 69.8754 112.226 69.8754 112.163L69.9222 112.117L70.0509 112.058L68.7985 111.11L69.7466 111.098C70.0587 111.098 70.2968 111.016 70.4606 110.851C70.6245 110.685 70.7064 110.476 70.7064 110.224C70.7064 109.972 70.6342 109.775 70.4898 109.633C70.3454 109.493 70.0976 109.42 69.7464 109.42H68.2716V107.442H70.3085ZM72.8018 115.182L68.7281 111.098H71.2215L72.8018 112.717V115.181V115.182ZM73.1413 112.636L78.3153 107.446H80.1414V115.137H78.0343V114.142H74.7137L76.5984 112.269H78.0343V110.232L73.1413 115.137V112.635V112.636ZM82.7635 109.424L84.8706 107.442V109.428V115.137H82.7635V109.424V109.424ZM80.8574 109.432L82.8377 107.442H87.5396L85.5574 109.432H80.8576H80.8574ZM94.1417 111.262C94.1417 112.503 93.7515 113.47 92.9712 114.165C92.1908 114.86 91.2621 115.207 90.1852 115.207C89.1161 115.207 88.1914 114.861 87.411 114.171C86.6305 113.48 86.2404 112.511 86.2404 111.262C86.2404 110.029 86.6307 109.063 87.411 108.365C88.1914 107.666 89.1201 107.317 90.1969 107.317C91.2738 107.317 92.1031 107.576 92.6845 108.095C93.266 108.614 93.6542 109.112 93.8493 109.588C94.0443 110.064 94.1419 110.622 94.1419 111.262L94.1417 111.262ZM88.2303 111.262C88.2303 111.863 88.4216 112.335 88.8039 112.678C89.1863 113.022 89.6428 113.193 90.1735 113.193C90.6886 113.193 91.1373 113.026 91.5198 112.69C91.9023 112.355 92.0933 111.878 92.0933 111.262C92.0933 110.653 91.9021 110.179 91.5198 109.84C91.1373 109.5 90.6808 109.33 90.1501 109.33C89.6351 109.33 89.1863 109.496 88.8039 109.828C88.4214 110.16 88.2303 110.638 88.2303 111.262V111.262ZM94.3643 109.555L96.4714 107.442V115.125H94.3643V109.555V109.555ZM98.5082 107.442C99.2885 107.442 99.9091 107.645 100.37 108.047C100.83 108.449 101.06 109.052 101.06 109.855C101.06 110.542 100.832 111.116 100.375 111.572C99.9188 112.029 99.3159 112.257 98.5668 112.257C98.239 112.257 98.0752 112.226 98.0752 112.163L98.122 112.117L98.2507 112.058L96.9983 111.11L97.9464 111.098C98.2585 111.098 98.4965 111.016 98.6604 110.851C98.8243 110.685 98.9062 110.476 98.9062 110.224C98.9062 109.972 98.834 109.775 98.6896 109.633C98.5452 109.493 98.2974 109.42 97.9462 109.42H96.4714V107.442H98.5082ZM101.002 115.182L96.9279 111.098H99.4212L101.002 112.717V115.181V115.182ZM101.423 109.557L103.53 107.442V115.137H101.423V109.557ZM110.226 112.245C110.226 113.073 109.918 113.779 109.301 114.364C108.685 114.949 107.955 115.242 107.112 115.242C106.277 115.242 105.557 114.951 104.952 114.368C104.348 113.786 104.045 113.076 104.045 112.241V109.557L106.152 107.446V112.267C106.152 112.524 106.252 112.746 106.451 112.93C106.65 113.113 106.886 113.205 107.159 113.205C107.417 113.205 107.645 113.115 107.844 112.936C108.043 112.756 108.143 112.534 108.143 112.269V110.431V108.745V107.446H110.226V108.487V112.245L110.226 112.245ZM110.811 112.704L116.114 107.442V110.735L119.45 107.442V115.125H117.448V111.789L114.077 115.158V111.894L110.811 115.125V112.704V112.704Z" fill="white"/>
<path d="M62.4658 123.886L67.6398 118.696H69.466V126.387H67.3589V125.392H64.0383L65.923 123.519H67.3589V121.482L62.4658 126.387V123.886ZM76.2436 123.496C76.2436 124.323 75.9353 125.029 75.3189 125.615C74.7023 126.2 73.9726 126.493 73.1299 126.493C72.2948 126.493 71.5749 126.202 70.9702 125.618C70.3653 125.037 70.0629 124.327 70.0629 123.492V120.807L72.17 118.696V123.517C72.17 123.775 72.2694 123.997 72.4686 124.181C72.6676 124.364 72.9037 124.456 73.1768 124.456C73.4344 124.456 73.6627 124.366 73.8617 124.187C74.0607 124.007 74.1602 123.785 74.1602 123.519V121.682V119.996V118.696H76.2439V119.738V123.496L76.2436 123.496ZM79.3105 124.479V126.387H80.2937C81.3238 126.387 82.1881 126.02 82.8865 125.287C83.585 124.555 83.9342 123.668 83.9342 122.624C83.9342 121.551 83.5265 120.628 82.7109 119.855C81.8953 119.083 80.9218 118.696 79.7902 118.696H78.9241L78.9123 120.698L79.9424 120.675C80.4808 120.675 80.9433 120.866 81.3295 121.25C81.7158 121.633 81.909 122.089 81.909 122.618C81.909 123.116 81.7432 123.551 81.4115 123.921C81.0798 124.294 80.6681 124.479 80.1765 124.479H79.3103L79.3105 124.479ZM76.8054 120.807L78.9125 118.696V126.375H76.8054V120.807ZM84.4611 120.807L86.5682 118.692V126.387H84.4611V120.807ZM94.9846 122.512C94.9846 123.753 94.5944 124.721 93.8141 125.415C93.0337 126.11 92.105 126.457 91.0281 126.457C89.959 126.457 89.0343 126.112 88.2539 125.421C87.4734 124.731 87.0833 123.761 87.0833 122.512C87.0833 121.279 87.4736 120.314 88.2539 119.615C89.0343 118.917 89.963 118.567 91.0398 118.567C92.1167 118.567 92.946 118.827 93.5274 119.346C94.1089 119.865 94.4971 120.362 94.6922 120.838C94.8872 121.314 94.9848 121.872 94.9848 122.512L94.9846 122.512ZM89.0732 122.512C89.0732 123.113 89.2645 123.586 89.6468 123.929C90.0292 124.272 90.4857 124.444 91.0164 124.444C91.5315 124.444 91.9802 124.276 92.3625 123.941C92.745 123.605 92.9361 123.129 92.9361 122.512C92.9361 121.904 92.7448 121.43 92.3625 121.09C91.98 120.751 91.5235 120.581 90.9929 120.581C90.4778 120.581 90.0291 120.747 89.6468 121.078C89.2643 121.41 89.0732 121.888 89.0732 122.512Z" fill="white"/>
</svg>
