<svg width="71" height="66" viewBox="0 0 71 66" fill="none" xmlns="http://www.w3.org/2000/svg">
<path fill-rule="evenodd" clip-rule="evenodd" d="M2.67707 26.5318C0.679576 19.1813 1.82859 12.927 10.1382 9.16649C10.1382 20.1781 10.1382 31.1896 10.1382 42.2013C10.1382 45.7371 13.0219 48.6208 16.5577 48.6208H19.4763C21.3382 58.5145 30.0233 66 40.4578 66C46.3703 66 51.7208 63.5963 55.5871 59.7134L60.9767 65.861V50.5707V38.7252V38.7221C58.4081 29.8127 50.1939 23.2959 40.4578 23.2959C30.8174 23.2959 22.6706 29.6854 20.0177 38.4601C19.0373 37.3325 18.4425 35.8613 18.4425 34.2557C18.4425 24.4643 18.4425 14.6731 18.4425 4.88171C17.0544 1.96924 14.8056 0.286256 11.5791 0C10.6251 2.64664 9.81766 3.80856 8.76155 4.75056C-0.231101 12.7713 -2.37879 19.5599 2.67707 26.5318ZM53.6262 18.6094C58.4138 20.4225 62.2604 24.0876 64.5417 28.6453C65.4608 30.4815 66.1115 32.4374 66.4681 34.44H70.3717C69.9938 31.9045 69.2093 29.3649 67.986 26.9211C63.9454 18.8488 56.2091 13.9682 48.2896 13.6082V17.4679C50.0948 17.5674 51.8952 17.9538 53.6262 18.6094ZM62.2455 29.7946C60.2532 25.8143 56.9 22.595 52.7168 21.0106C51.2824 20.4675 49.7891 20.1396 48.2898 20.043V22.8492C49.4704 22.9449 50.6446 23.2139 51.7746 23.6418C55.3536 24.9972 58.2135 27.7713 59.9165 31.1737C60.4374 32.2144 60.8463 33.3123 61.1323 34.4398H63.8499C63.5231 32.8319 62.9816 31.2652 62.2455 29.7946ZM28.8706 48.6208H36.9484C37.8798 49.44 39.1015 49.937 40.4392 49.937C43.3601 49.937 45.7281 47.569 45.7281 44.6481C45.7281 41.7272 43.3601 39.3593 40.4392 39.3593C39.1013 39.3593 37.8798 39.8563 36.9484 40.6754H28.8707C30.5136 35.9579 34.9996 32.5722 40.2771 32.5722C45.7835 32.5722 50.4287 36.2579 51.8813 41.2968L51.8818 41.2984V47.998V56.6457L48.8336 53.1688C46.647 55.3649 43.6209 56.7243 40.2769 56.7243C34.9994 56.7243 30.5135 53.3384 28.8706 48.6208Z" fill="white"/>
</svg>
