<svg width="40" height="40" viewBox="0 0 40 40" fill="none" xmlns="http://www.w3.org/2000/svg">
<path d="M39.9991 19.9921C39.9991 31.0413 31.0407 39.9843 20.0077 39.9843C8.95904 39.9843 0.0163574 31.0255 0.0163574 19.9921C0.0163574 8.94303 8.97476 0 20.0077 0C31.0564 0 39.9991 8.95874 39.9991 19.9921Z" fill="white"/>
<path d="M15.7629 27.3164L16.1558 27.5522C17.6017 28.4166 19.2519 28.8724 20.9179 28.8724C26.0572 28.8724 30.2377 24.6917 30.2377 19.5522C30.2377 14.4127 26.0572 10.2319 20.9179 10.2319C15.7786 10.2319 11.598 14.4127 11.598 19.5522C11.598 21.2496 12.0695 22.9156 12.9653 24.3773L13.2011 24.7703L12.2738 28.2437L15.7629 27.3007V27.3164ZM9.19336 31.3243L10.8593 25.1003C9.91632 23.4029 9.41339 21.4854 9.41339 19.5522C9.41339 13.2182 14.5684 8.06299 20.9021 8.06299C27.2359 8.06299 32.3909 13.2182 32.3909 19.5522C32.3909 25.8862 27.2359 31.0414 20.9021 31.0414C19.0005 31.0414 17.1145 30.5541 15.4485 29.6426L9.19336 31.3243Z" fill="#680000"/>
<path fill-rule="evenodd" clip-rule="evenodd" d="M25.1772 21.1428C24.7057 20.8599 24.0928 20.5456 23.527 20.7656C23.1026 20.9385 22.8354 21.6143 22.5525 21.9444C22.4111 22.1173 22.2382 22.1487 22.0182 22.0544C20.4151 21.41 19.1892 20.3413 18.2934 18.8639C18.1519 18.6281 18.1676 18.4552 18.3562 18.2352C18.6234 17.9208 18.9535 17.5593 19.032 17.135C19.1106 16.7106 18.9063 16.2077 18.7334 15.8305C18.5134 15.3432 18.2619 14.6517 17.7747 14.3845C17.3347 14.133 16.7374 14.2745 16.3445 14.5888C15.653 15.1389 15.323 16.0191 15.3387 16.8835C15.3387 17.135 15.3701 17.3707 15.433 17.6065C15.5744 18.1723 15.8416 18.7067 16.1245 19.2096C16.3445 19.5868 16.596 19.964 16.8475 20.3255C17.7119 21.4886 18.7806 22.5102 20.0065 23.2646C20.6194 23.6418 21.2952 23.9719 21.971 24.2077C22.7411 24.4591 23.4327 24.7263 24.2656 24.5692C25.1458 24.3963 25.9945 23.8619 26.3402 23.0289C26.4345 22.7774 26.4974 22.4945 26.4345 22.243C26.3088 21.6929 25.5858 21.3786 25.1458 21.1114L25.1772 21.1428Z" fill="#680000"/>
</svg>
